# xmcd
#
# Track frame offsets: 
#        150
#        13325
#        25289
#        36652
#        57926
#        70814
#        83826
#        102634
#        117999
#        136760
#        148103
#        162293
#        175081
#        187542
#        196941
#
# Disc length: 2790 seconds
#
# Revision: 0
# Processed by: cddbd v1.5.2PL0 Copyright (c) Steve Scherf et al.
# Submitted via: ExactAudioCopyFreeDBPlugin 1.0
#
DISCID=d00ae40f
DTITLE=Various Artist - Musik Für Unterwegs - Trucker and Country - CD3
DYEAR=1900
DGENRE=Country
TTITLE0=Kenny Rogers - Ruby, Don't Take Your Love To Town
TTITLE1=Tammy Wynette - Stand By Your Man
TTITLE2=Don Gibson - Sea Of Heartbreak
TTITLE3=Olivia Newton-John - Banks Of The Ohio
TTITLE4=Johnny Horton - North To Alaska
TTITLE5=Crystal Gayle - Talkin' In Your Sleep
TTITLE6=Tanya Tucker - Delta Dawn
TTITLE7=Boxcar Willie - Forty-Nine Nights
TTITLE8=Marty Robbins - El Paso
TTITLE9=Hank Snow - The Hobo's Last Ride
TTITLE10=Stonewall Jackson - Don't Be Angry
TTITLE11=Porter Waggoner - Satisfied Mind
TTITLE12=The Oak Ridge Boys - In The Shelter Of His Arms
TTITLE13=Mickey Gilley - Lotta Lovin'
TTITLE14=Sonny James - Running Bear
EXTD=
EXTT0=
EXTT1=
EXTT2=
EXTT3=
EXTT4=
EXTT5=
EXTT6=
EXTT7=
EXTT8=
EXTT9=
EXTT10=
EXTT11=
EXTT12=
EXTT13=
EXTT14=
PLAYORDER=
